<svg width="127" height="127" viewBox="0 0 127 127" fill="none" xmlns="http://www.w3.org/2000/svg">
<path d="M63.4863 126.973C98.5487 126.973 126.973 98.5487 126.973 63.4863C126.973 28.4238 98.5487 0 63.4863 0C28.4238 0 0 28.4238 0 63.4863C0 98.5487 28.4238 126.973 63.4863 126.973Z" fill="#BE9C72"/>
<path d="M36.7336 40.2804L26.8903 47.4566C26.4812 47.7731 26.208 48.2336 26.1263 48.7443C26.0446 49.2551 26.1605 49.7777 26.4504 50.2061L52.7357 86.2798C53.0522 86.6888 53.5127 86.9619 54.0234 87.0437C54.5342 87.1254 55.0569 87.0095 55.4852 86.7196L65.3285 79.5709C65.7376 79.2544 66.0107 78.7939 66.0924 78.2832C66.1742 77.7725 66.0583 77.2498 65.7684 76.8214L39.4831 40.7478C39.1665 40.3398 38.7084 40.0654 38.1993 39.9788C37.6902 39.8923 37.1671 39.9999 36.7336 40.2804ZM42.2326 51.2784L35.6887 56.0351L33.2967 52.7632L39.8405 47.979L42.2326 51.2784ZM53.2306 28.2925L43.3874 35.4687C42.9793 35.7853 42.7049 36.2433 42.6184 36.7525C42.5318 37.2616 42.6394 37.7847 42.92 38.2183L69.2053 74.2918C69.5218 74.7009 69.9823 74.9741 70.493 75.0558C71.0038 75.1376 71.5264 75.0217 71.9548 74.7318L81.7981 67.5556C82.2071 67.2391 82.4803 66.7786 82.562 66.2678C82.6437 65.7571 82.5279 65.2344 82.238 64.8061L55.9801 28.7324C55.6636 28.3233 55.2032 28.0502 54.6924 27.9685C54.1817 27.8868 53.659 28.0026 53.2306 28.2925ZM58.7297 39.2905L52.1583 44.0747L49.7662 40.8028L56.3376 36.0187L58.7297 39.2905ZM66.3733 22.546L60.8743 33.3791C60.7458 33.6147 60.666 33.8738 60.6394 34.1409C60.6128 34.408 60.6401 34.6776 60.7195 34.934C60.799 35.1903 60.9291 35.4281 61.102 35.6333C61.275 35.8385 61.4874 36.0069 61.7266 36.1286L97.8277 54.6878C98.0659 54.8115 98.3261 54.8868 98.5934 54.9095C98.8608 54.9322 99.13 54.9017 99.3856 54.82C99.6411 54.7382 99.878 54.6067 100.082 54.4331C100.287 54.2594 100.455 54.047 100.577 53.808L106.076 42.9749C106.2 42.7368 106.275 42.4766 106.298 42.2092C106.321 41.9418 106.29 41.6726 106.208 41.4171C106.127 41.1615 105.995 40.9247 105.821 40.7202C105.648 40.5156 105.435 40.3475 105.196 40.2254L69.0953 21.6662C68.8572 21.5426 68.597 21.4672 68.3296 21.4445C68.0622 21.4218 67.793 21.4522 67.5375 21.534C67.2819 21.6158 67.0451 21.7473 66.8406 21.921C66.636 22.0946 66.4679 22.3071 66.3458 22.546H66.3733ZM100.357 51.6633C100.674 52.1009 100.805 52.6465 100.72 53.1802C100.635 53.7139 100.341 54.1919 99.9036 54.5091C99.4661 54.8263 98.9204 54.9567 98.3868 54.8717C97.8531 54.7866 97.3751 54.493 97.0578 54.0555C96.899 53.8406 96.784 53.5966 96.7194 53.3373C96.6549 53.078 96.642 52.8085 96.6816 52.5443C96.7211 52.28 96.8124 52.0262 96.9501 51.7972C97.0878 51.5682 97.2692 51.3686 97.484 51.2097C97.6989 51.0508 97.9429 50.9358 98.2022 50.8712C98.4615 50.8067 98.7309 50.7938 98.9952 50.8334C99.2594 50.873 99.5133 50.9642 99.7423 51.1019C99.9713 51.2396 100.171 51.4211 100.33 51.6359L100.357 51.6633Z" fill="white"/>
<path d="M44.8996 117.707C43.6124 117.704 42.3449 117.391 41.2054 116.792C40.0658 116.194 39.0881 115.328 38.3557 114.27L10.9431 74.7318C10.3428 73.8674 9.91956 72.8927 9.69776 71.8639C9.47597 70.8352 9.46003 69.7728 9.65084 68.7378C9.82895 67.7074 10.2129 66.7235 10.7798 65.8448C11.3467 64.9662 12.0849 64.2107 12.9502 63.6237L21.5837 57.6023C22.9222 56.6682 24.5158 56.1691 26.1479 56.1725C27.4151 56.1989 28.6582 56.5239 29.7761 57.1211C30.894 57.7183 31.8553 58.5708 32.5818 59.6094L49.4638 84.0251L104.317 46.0268C106.054 44.8692 108.175 44.4341 110.228 44.8139C112.281 45.1938 114.106 46.3587 115.315 48.0614L121.281 56.6674C122.46 58.3987 122.907 60.5255 122.526 62.5851C122.145 64.6447 120.967 66.4705 119.246 67.6655L49.2438 116.167C47.9797 117.098 46.468 117.634 44.8996 117.707Z" fill="white"/>
<path d="M108.963 47.3741C109.812 47.3711 110.648 47.5749 111.4 47.9677C112.153 48.3605 112.798 48.9306 113.28 49.6287L119.219 58.2347C119.612 58.7993 119.89 59.436 120.037 60.1082C120.183 60.7805 120.196 61.4751 120.073 62.1521C119.95 62.8291 119.695 63.4752 119.322 64.0534C118.949 64.6315 118.465 65.1302 117.899 65.5209L47.8966 114.022C47.332 114.416 46.6953 114.694 46.0231 114.84C45.3508 114.987 44.6563 114.999 43.9793 114.876C43.3022 114.754 42.6561 114.499 42.078 114.125C41.4998 113.752 41.0011 113.269 40.6104 112.703L13.3352 73.1371C12.5481 71.9946 12.2451 70.587 12.4924 69.2218C12.7396 67.8566 13.5171 66.6447 14.655 65.8508L23.2609 59.8569C23.8255 59.4636 24.4621 59.1857 25.1344 59.0392C25.8066 58.8926 26.5012 58.8803 27.1782 59.0029C27.8553 59.1255 28.5014 59.3808 29.0795 59.7538C29.6577 60.1268 30.1564 60.6104 30.5471 61.1767L49.0239 87.847L106.131 48.2815C107.013 47.7001 108.044 47.385 109.101 47.3741H108.963ZM109.101 41.8751C106.92 41.8705 104.791 42.5325 102.997 43.7723L50.2611 80.2308L34.9464 58.0698C34.1475 56.9039 33.126 55.9075 31.9406 55.1377C30.7553 54.368 29.4295 53.8402 28.0394 53.5847C26.6494 53.3292 25.2226 53.3509 23.841 53.6488C22.4594 53.9466 21.1503 54.5147 19.989 55.3202L11.383 61.3142C10.2193 62.1108 9.226 63.1315 8.46122 64.3164C7.69643 65.5014 7.17548 66.8269 6.92882 68.2155C6.42698 71.0153 7.0494 73.9001 8.66102 76.244L36.1562 115.81C36.9551 116.975 37.9765 117.972 39.1619 118.742C40.3472 119.511 41.673 120.039 43.0631 120.295C44.4531 120.55 45.88 120.528 47.2615 120.23C48.6431 119.933 49.9522 119.365 51.1135 118.559L121.116 70.0851C123.459 68.4621 125.063 65.9772 125.579 63.1741C126.094 60.371 125.478 57.4779 123.866 55.1278L117.817 46.4943C116.831 45.0661 115.512 43.8992 113.974 43.0944C112.437 42.2897 110.726 41.8712 108.991 41.8751H109.101Z" fill="#BE9C72"/>
</svg>
