<svg width="42" height="42" viewBox="0 0 42 42" fill="none" xmlns="http://www.w3.org/2000/svg">
<path d="M35.1667 11.1666V17.645C35.1667 17.645 30.855 17.6666 30.8333 17.645V11.1666H24.3333C24.3333 11.1666 24.355 6.85498 24.3333 6.83331H30.8333V0.333313H35.1667V6.83331H41.6667V11.1666H35.1667ZM28.6667 19.8333V13.3333H22.1667V6.83331H4.83333C2.45 6.83331 0.5 8.78331 0.5 11.1666V37.1666C0.5 39.55 2.45 41.5 4.83333 41.5H30.8333C33.2167 41.5 35.1667 39.55 35.1667 37.1666V19.8333H28.6667ZM4.83333 37.1666L11.3333 28.5L15.6667 35L22.1667 26.3333L30.8333 37.1666H4.83333Z" fill="#391010"/>
</svg>
